PathFileType	4	(X/Y/Z)	Patient4_TMGait_0pt2_03_left_23.trc.trc
DataRate	CameraRate	NumFrames	NumMarkers	Units	OrigDataRate	OrigDataStartFrame	OrigNumFrames
48.780487804878	48.780487804878	4	33	mm	48.780487804878	53	       141
Frame#	Time	Sacral			L.Shoulder			Chest			R.Shoulder			Neck			R.ASIS			L.ASIS			R.Thigh.Superior			R.Thigh.Lateral			R.Thigh.Inferior			R.Patella			L.Thigh.Superior			L.Thigh.Lateral			L.Thigh.Inferior			L.Patella			L.Shank.Superior			L.Shank.Lateral			L.Shank.Inferior			R.Shank.Superior			R.Shank.Lateral			R.Shank.Inferior			R.Heel			R.Midfoot.Superior			R.Midfoot.Lateral			R.Toe			L.Heel			L.Midfoot.Lateral			L.Midfoot.Superior			L.Toe			L.Elbow			L.Wrist			R.Elbow			R.Wrist			
		X1	Y1	Z1	X2	Y2	Z2	X3	Y3	Z3	X4	Y4	Z4	X5	Y5	Z5	X6	Y6	Z6	X7	Y7	Z7	X8	Y8	Z8	X9	Y9	Z9	X10	Y10	Z10	X11	Y11	Z11	X12	Y12	Z12	X13	Y13	Z13	X14	Y14	Z14	X15	Y15	Z15	X16	Y16	Z16	X17	Y17	Z17	X18	Y18	Z18	X19	Y19	Z19	X20	Y20	Z20	X21	Y21	Z21	X22	Y22	Z22	X23	Y23	Z23	X24	Y24	Z24	X25	Y25	Z25	X26	Y26	Z26	X27	Y27	Z27	X28	Y28	Z28	X29	Y29	Z29	X30	Y30	Z30	X31	Y31	Z31	X32	Y32	Z32	X33	Y33	Z33	

53	49.166000000000	858.085629958289	1003.011530604222	424.416398916408	1061.965616111384	1425.835424447778	247.765335056046	1154.183592049337	1348.724230050445	410.457124919373	1071.594055588269	1422.624285778431	583.282156317013	1033.351630201887	1486.206264165398	406.247112296388	1084.305671975996	934.838347015823	545.976136136584	1073.688700011349	948.277608951446	272.523860552105	1134.384965993638	737.044562424187	525.475033986997	1064.152935436415	629.177404805494	599.956857109329	1143.238167042197	568.867055809164	524.745814601312	1139.571575430982	461.247398755178	550.083680219924	1135.743974279209	748.587487492114	309.884150271743	1058.482942479107	610.652072336413	249.639785781806	1158.949060867084	555.663922951781	320.975390615920	1166.146812475305	481.041608394690	329.676032135178	1130.290026275755	405.847122779198	324.064576827277	1032.106904706448	300.128670382080	270.535915896117	1064.409720838364	186.270015714074	345.114119445349	1062.649131860704	395.071520336028	563.885718184565	948.372965735898	359.552914199860	638.758185567250	926.718432939570	249.694259697351	592.888649101230	720.301713764182	185.343840003405	589.548529620203	894.376375130381	133.246816372869	614.562235373063	788.490293269371	127.397821927360	656.121443422268	965.528770518109	32.307834744743	630.582746334594	920.572079670955	39.535097797800	382.640865850099	996.075419371593	36.092024831125	303.719488121004	1079.763110210188	95.965660507139	333.122135174555	1208.216373599179	41.550605549770	305.874113641294	1099.711540283238	1089.721600183056	95.843911629170	1268.559115106588	888.434222513113	107.465699859746	1031.924305795403	1067.746468624660	687.942334517207	1106.865798103949	817.788984547955	694.906733446621	
54	49.186500000000	856.120854068613	999.554768388514	420.323322539681	1063.717250850688	1423.211798672503	246.224897080897	1152.986154100461	1345.713408830758	410.375318369560	1067.400766318078	1419.268431690681	581.968964738398	1032.810693480456	1483.346457228782	404.536647690545	1082.155555725599	932.960571991457	543.742908724136	1073.493386222381	945.712904732361	270.078952833914	1139.097857732003	738.657336763475	521.529161182662	1074.084148707818	628.707878734241	596.699972962155	1154.462654342631	570.637384683374	520.433944743031	1153.632513975923	461.620126468663	546.627486407314	1137.028118652627	746.746806025398	308.155556790566	1061.143375118191	607.984546824537	248.525408978189	1161.624535507104	554.011556607134	320.883153789934	1169.270628926342	479.026235073109	329.876862450038	1132.147168904204	403.409266414337	324.341773701138	1032.525057220684	299.121796083567	270.470436688868	1062.330726258903	184.957270211726	345.363078489358	1075.231457124163	395.392808929756	561.459406156669	959.915364039867	363.353232346989	636.954654312263	935.292469452282	253.496826167037	592.403220321369	726.906256898390	195.158708413863	590.695399086602	900.231081682970	138.083137651684	615.374453227407	793.935359438868	135.718336324353	657.458151990925	968.545443103040	32.647336401616	632.056453292871	916.501430067860	39.518847728785	382.559081268386	992.017791633171	36.070857347812	303.637724004221	1075.734035335674	95.831800586376	333.262805364173	1204.180660310652	41.457030348275	305.832499390888	1112.559417638409	1089.553497434165	92.874169108372	1292.202850067050	898.016703460660	106.015369951753	1011.145323569161	1066.884004838051	685.594696986880	1068.497717892682	812.133570796258	694.027487096573	
55	49.207000000000	854.084734287648	996.257283374669	416.495880032909	1065.473674755187	1420.661827071678	245.073994203793	1151.720403417503	1342.825032757369	410.677213278067	1063.058896428720	1416.107831331337	580.924497564892	1032.234976988258	1480.598118519656	403.161173148721	1079.804627202513	931.186725147844	541.912338360926	1073.348716228898	943.225995927231	268.038245071597	1142.974600099201	740.460296738280	518.053237654076	1082.991686259764	628.747835524766	593.899739522835	1164.399099124973	572.868697624292	516.528054062784	1166.512328634174	462.798950396283	543.493244658330	1138.217176962425	744.935827574890	306.898016959253	1063.591410216707	605.384296056957	247.840571893610	1163.991895292102	552.368230632099	321.202944770656	1172.041816226896	477.075119625199	330.531760231937	1133.708261594739	401.075303492426	324.963407225621	1032.767714218624	298.182000766966	270.645878118772	1060.169251752467	183.690038514229	345.741421057817	1087.184914291078	396.160216988435	559.413504490012	971.054280788348	366.600250376487	635.300371289260	944.617505117517	256.562516883192	592.060619867209	734.975847630115	201.848031425677	591.476948584223	907.912936880405	142.122110450403	616.288167835647	801.333095846804	142.071173370120	658.771200554609	974.616519466706	33.482851389866	634.209209110250	912.432113254074	39.509597293053	382.483489533498	987.969556372057	36.061738493365	303.571211706155	1071.718018402296	95.692545429684	333.436365413286	1200.150354283011	41.353635786150	305.795616226843	1124.606355697877	1089.638126901457	90.582447520749	1314.636463870379	908.593668835971	105.329813745006	990.498552374574	1066.897887463213	683.061950382358	1031.404592104461	808.962812451116	692.569869413763	
56	49.227500000000	852.024891878308	993.374433322909	412.894706719560	1067.292661083681	1418.379163769897	244.303540858211	1150.432137983858	1340.270799070734	411.358366942544	1058.625672561917	1413.385376828920	580.126527293917	1031.660714382888	1478.173217605661	402.093795409491	1077.214469823871	929.696057196187	540.538236465037	1073.304757154744	941.001299135434	266.453440371299	1145.858227387654	742.502114390845	515.223207474316	1090.528497072099	629.357441338978	591.672971035855	1172.772264733953	575.563250210100	513.261141672282	1177.885568008264	464.839718971351	540.905708848540	1139.169650415664	743.243714602152	306.121626507236	1065.565433335983	603.027131734501	247.532395547888	1165.737085659949	550.811247653045	321.867516265999	1174.091944884764	475.293518402790	331.561097478778	1134.661207274641	398.974566889121	325.845483970408	1032.602235167041	297.354783525278	270.999764097044	1057.812708434924	182.537999041291	346.206705656880	1098.278724069462	397.413857427277	557.877541078178	981.605780109570	369.078635955256	633.864862552429	954.761326057851	258.650992740834	591.871676231558	744.727691993309	204.741674719272	591.759058818109	917.702870336784	145.054697798521	617.295522953537	810.943986238234	145.888181418663	659.942552448827	984.207463536690	34.804503374027	637.000366853523	908.355181011521	39.502177891771	382.411158316369	983.922192828841	36.059469431336	303.514809916164	1067.702226697127	95.554970096005	333.624229456458	1196.117128081057	41.250889129429	305.764801324824	1135.828020404993	1090.084621807136	88.939887639667	1335.747161705866	920.233875197003	105.382273771960	970.312802931145	1067.904125641576	680.284431424455	996.071288736162	808.095278622522	690.519312020478	
